<svg width="20" height="20" viewBox="0 0 20 20" fill="none" xmlns="http://www.w3.org/2000/svg">
<g id="Frame 5">
<g clip-path="url(#clip0_40_176)">
<rect width="20" height="20" rx="5" fill="#1C2023"/>
<g id="&#240;&#159;&#166;&#134; icon &#34;plus&#34;">
<path id="Vector" d="M16.75 8.41667H11.25V2.91667C11.25 2.67355 11.1534 2.44039 10.9815 2.26849C10.8096 2.09658 10.5764 2 10.3333 2C10.0902 2 9.85706 2.09658 9.68515 2.26849C9.51324 2.44039 9.41667 2.67355 9.41667 2.91667V8.41667H3.91667C3.67355 8.41667 3.44039 8.51324 3.26849 8.68515C3.09658 8.85706 3 9.09022 3 9.33333C3 9.57645 3.09658 9.80961 3.26849 9.98152C3.44039 10.1534 3.67355 10.25 3.91667 10.25H9.41667V15.75C9.41667 15.9931 9.51324 16.2263 9.68515 16.3982C9.85706 16.5701 10.0902 16.6667 10.3333 16.6667C10.5764 16.6667 10.8096 16.5701 10.9815 16.3982C11.1534 16.2263 11.25 15.9931 11.25 15.75V10.25H16.75C16.9931 10.25 17.2263 10.1534 17.3982 9.98152C17.5701 9.80961 17.6667 9.57645 17.6667 9.33333C17.6667 9.09022 17.5701 8.85706 17.3982 8.68515C17.2263 8.51324 16.9931 8.41667 16.75 8.41667Z" fill="white"/>
</g>
</g>
</g>
<defs>
<clipPath id="clip0_40_176">
<rect width="20" height="20" rx="5" fill="white"/>
</clipPath>
</defs>
</svg>
