<svg width="1000" height="1000" viewBox="0 0 1000 1000" fill="none" xmlns="http://www.w3.org/2000/svg">
<g clip-path="url(#clip0_92_726)">
<mask id="mask0_92_726" style="mask-type:luminance" maskUnits="userSpaceOnUse" x="0" y="0" width="1000" height="1000">
<path d="M1000 0H0V1000H1000V0Z" fill="white"/>
</mask>
<g mask="url(#mask0_92_726)">
<path fill-rule="evenodd" clip-rule="evenodd" d="M136.543 379.181C136.543 348.681 161.268 323.954 191.769 323.954H457.516C488.016 323.954 512.743 348.681 512.743 379.181V852.078C512.743 882.578 488.016 907.301 457.516 907.301H191.769C161.268 907.301 136.543 882.578 136.543 852.078V379.181ZM191.769 329.214C164.173 329.214 141.802 351.584 141.802 379.181V852.078C141.802 879.671 164.173 902.041 191.769 902.041H457.516C485.113 902.041 507.483 879.671 507.483 852.078V379.181C507.483 351.584 485.113 329.214 457.516 329.214H191.769Z" fill="#F1F1F1"/>
<path fill-rule="evenodd" clip-rule="evenodd" d="M629.442 381.984C636.705 381.984 642.592 387.871 642.592 395.134V877.071C642.592 884.334 636.705 890.221 629.442 890.221H328.157C320.895 890.221 315.008 884.334 315.008 877.071V622.051L359.788 635.111C361.945 635.741 364.272 635.421 366.178 634.228L395.915 615.644C399.245 613.561 403.598 614.248 406.128 617.251L436.088 652.828C438.512 655.708 442.632 656.471 445.928 654.654L494.935 627.651C497.588 626.191 500.842 626.378 503.308 628.128L532.868 649.104C535.178 650.744 538.195 651.021 540.765 649.824L602.108 621.264C604.782 620.021 607.925 620.371 610.258 622.171L642.592 647.114V395.134C642.592 387.871 636.705 381.984 629.442 381.984H328.156C327.982 381.984 327.81 381.988 327.637 381.994C327.81 381.988 327.983 381.984 328.157 381.984H629.442Z" fill="#53B3CC"/>
<path d="M380.043 172.427H416.173V196.514H380.043V172.427Z" fill="#E5E5E5"/>
<path d="M218.66 35.1309H428.218V184.471H218.66V35.1309Z" fill="#FAC22F"/>
<path d="M76.5469 316.554C76.5469 287.506 100.095 263.958 129.143 263.958H394.89C423.94 263.958 447.486 287.506 447.486 316.554V789.451C447.486 818.498 423.94 842.048 394.89 842.048H129.143C100.095 842.048 76.5469 818.498 76.5469 789.451V316.554Z" fill="#F1F1F1"/>
<path fill-rule="evenodd" clip-rule="evenodd" d="M73.918 316.554C73.918 286.053 98.6433 261.328 129.144 261.328H394.89C425.394 261.328 450.117 286.053 450.117 316.554V789.451C450.117 819.951 425.394 844.674 394.89 844.674H129.144C98.6433 844.674 73.918 819.951 73.918 789.451V316.554ZM129.144 266.587C101.548 266.587 79.1773 288.958 79.1773 316.554V789.451C79.1773 817.044 101.548 839.418 129.144 839.418H394.89C422.487 839.418 444.857 817.044 444.857 789.451V316.554C444.857 288.958 422.487 266.587 394.89 266.587H129.144Z" fill="#3E3D3D"/>
<path fill-rule="evenodd" clip-rule="evenodd" d="M95.8164 275.861C104.889 268.422 116.494 263.958 129.142 263.958H394.889C407.539 263.958 419.145 268.423 428.219 275.862V830.141C419.145 837.581 407.539 842.048 394.889 842.048H129.142C116.494 842.048 104.889 837.581 95.8164 830.144V275.861Z" fill="white"/>
<path opacity="0.5" d="M124.723 380.681C124.723 373.418 130.61 367.531 137.872 367.531H386.167C393.427 367.531 399.314 373.418 399.314 380.681V539.855C399.314 547.115 393.427 553.001 386.167 553.001H137.872C130.61 553.001 124.723 547.115 124.723 539.855V380.681Z" fill="#F1F1F1"/>
<path d="M124.723 601.174H194.575V644.531H124.723V601.174Z" fill="#53B3CC"/>
<path d="M223.477 601.174H293.329V644.531H223.477V601.174Z" fill="#53B3CC"/>
<path d="M322.234 601.174H399.311V644.531H322.234V601.174Z" fill="#53B3CC"/>
<path d="M124.723 671.028H194.575V714.385H124.723V671.028Z" fill="#53B3CC"/>
<path d="M223.477 671.028H293.329V714.385H223.477V671.028Z" fill="#53B3CC"/>
<path d="M322.234 671.028H399.312V714.385H322.234V671.028Z" fill="#53B3CC"/>
<path d="M124.723 743.288H194.575V786.644H124.723V743.288Z" fill="#F15846"/>
<path d="M223.477 743.288H293.329V786.644H223.477V743.288Z" fill="#53B3CC"/>
<path d="M322.234 743.288H399.312V786.644H322.234V743.288Z" fill="#F15846"/>
<path fill-rule="evenodd" clip-rule="evenodd" d="M73.918 316.554C73.918 286.053 98.6433 261.328 129.144 261.328H394.89C425.394 261.328 450.117 286.053 450.117 316.554V789.451C450.117 819.951 425.394 844.674 394.89 844.674H129.144C98.6433 844.674 73.918 819.951 73.918 789.451V316.554ZM129.144 266.587C101.548 266.587 79.1773 288.958 79.1773 316.554V789.451C79.1773 817.044 101.548 839.418 129.144 839.418H394.89C422.487 839.418 444.857 817.044 444.857 789.451V316.554C444.857 288.958 422.487 266.587 394.89 266.587H129.144Z" fill="#3E3D3D"/>
<path d="M143.992 157.975H380.044V324.175H143.992V157.975Z" fill="#F1F1F1"/>
<path fill-rule="evenodd" clip-rule="evenodd" d="M380.044 157.975H143.992V144.727L144.047 144.667C144.011 144.29 143.993 143.909 143.993 143.523C143.993 136.872 149.385 131.48 156.036 131.479H392.088L380.044 144.727V157.975Z" fill="#F1F1F1"/>
<path d="M428.216 184.471C428.216 191.122 422.826 196.514 416.172 196.514C409.522 196.514 404.129 191.122 404.129 184.471C404.129 177.819 409.522 172.427 416.172 172.427C422.826 172.427 428.216 177.819 428.216 184.471Z" fill="#FAC22F"/>
<path d="M404.13 143.523C404.13 150.174 398.74 155.566 392.086 155.566C385.436 155.566 380.043 150.174 380.043 143.523C380.043 136.871 385.436 131.479 392.086 131.479C398.74 131.479 404.13 136.871 404.13 143.523Z" fill="#E5E5E5"/>
<path d="M380.043 143.522H404.13V196.514H380.043V143.522Z" fill="#E5E5E5"/>
<path d="M345.115 460.268C345.115 505.498 308.45 542.164 263.22 542.164C217.99 542.164 181.324 505.498 181.324 460.268C181.324 415.038 217.99 378.371 263.22 378.371C308.45 378.371 345.115 415.038 345.115 460.268Z" fill="#F15846"/>
<path d="M143.992 307.314H380.044V324.175H143.992V307.314Z" fill="#E5E5E5"/>
<path fill-rule="evenodd" clip-rule="evenodd" d="M211.43 497.188L300.146 408.471L315.022 423.348L226.306 512.065L211.43 497.188Z" fill="white"/>
<path fill-rule="evenodd" clip-rule="evenodd" d="M226.306 408.471L315.022 497.188L300.146 512.065L211.43 423.348L226.306 408.471Z" fill="white"/>
<path fill-rule="evenodd" clip-rule="evenodd" d="M500.48 626.864V890.221H575.15V633.818L540.767 649.824C538.197 651.021 535.184 650.744 532.874 649.104L503.314 628.128C502.447 627.511 501.484 627.091 500.48 626.864Z" fill="#46A4BC"/>
<path fill-rule="evenodd" clip-rule="evenodd" d="M891.242 516.624C893.855 523.398 890.479 531.011 883.705 533.624L648.602 624.298L660.239 585.154C661.079 582.331 660.272 579.271 658.152 577.228L609.432 530.268C607.392 528.298 606.562 525.388 607.262 522.641L616.195 487.514C616.942 484.581 615.945 481.478 613.629 479.531L570.799 443.524C567.919 441.101 567.149 436.981 568.962 433.684L591.375 392.931C593.269 389.488 592.339 385.178 589.199 382.821L561.159 361.764C559.362 360.414 558.225 358.361 558.035 356.118L554.105 309.639L765.825 227.983C772.602 225.37 780.212 228.745 782.825 235.52L891.242 516.624Z" fill="#53B3CC"/>
<path fill-rule="evenodd" clip-rule="evenodd" d="M303.94 684.941L277.07 615.271L303.94 684.941H303.94ZM636.738 556.588L609.431 530.268C607.391 528.301 606.564 525.388 607.261 522.641L616.198 487.515C616.458 486.485 616.508 485.431 616.354 484.418L844.834 396.298L871.704 465.968L636.738 556.588Z" fill="#46A4BC"/>
<path d="M628.141 174.835C628.141 215.409 595.251 248.301 554.674 248.301C514.101 248.301 481.211 215.409 481.211 174.835C481.211 134.262 514.101 101.37 554.674 101.37C595.251 101.37 628.141 134.262 628.141 174.835Z" fill="#F15846"/>
<path d="M710.037 174.836C710.037 160.868 698.713 149.544 684.743 149.544C670.776 149.544 659.453 160.868 659.453 174.836C659.453 188.804 670.776 200.127 684.743 200.127C698.713 200.127 710.037 188.804 710.037 174.836Z" fill="#FAC22F"/>
<path fill-rule="evenodd" clip-rule="evenodd" d="M513.238 203.258L583.095 133.401L596.112 146.418L526.255 216.275L513.238 203.258Z" fill="white"/>
<path fill-rule="evenodd" clip-rule="evenodd" d="M526.255 133.401L596.112 203.258L583.095 216.275L513.238 146.418L526.255 133.401Z" fill="white"/>
<path d="M905.139 929.964H685.949V963.684H905.139V929.964Z" fill="#F15846"/>
<path d="M931.635 898.651H712.445V929.964H931.635V898.651Z" fill="#53B3CC"/>
<path d="M917.182 864.928H697.992V898.651H917.182V864.928Z" fill="#FAC22F"/>
<path fill-rule="evenodd" clip-rule="evenodd" d="M-1.95703 963.684C-1.95703 962.234 -0.779628 961.054 0.672772 961.054H958.133C959.583 961.054 960.763 962.234 960.763 963.684C960.763 965.137 959.583 966.314 958.133 966.314H0.672772C-0.779628 966.314 -1.95703 965.137 -1.95703 963.684Z" fill="#3E3D3D"/>
<path fill-rule="evenodd" clip-rule="evenodd" d="M890.688 692.927H710.035V687.667H890.688V692.927ZM890.688 739.898H710.035V734.638H890.688V739.898ZM803.975 790.481H710.035V785.221H803.975V790.481Z" fill="#F1F1F1"/>
<path fill-rule="evenodd" clip-rule="evenodd" d="M345.115 185.896H181.324V180.636H345.115V185.896ZM345.115 228.048H181.324V222.789H345.115V228.048ZM345.115 266.588H181.324V261.328H345.115V266.588Z" fill="#3E3D3D"/>
</g>
</g>
<defs>
<clipPath id="clip0_92_726">
<rect width="1000" height="1000" fill="white"/>
</clipPath>
</defs>
</svg>
